<?xml version="1.0" encoding="utf-8"?>
<svg version="1.1" xmlns:xlink="http://www.w3.org/1999/xlink" width="26px" height="18px" xmlns="http://www.w3.org/2000/svg">
  <g transform="matrix(1 0 0 1 -45 -930 )">
    <path d="M 25.6783854166667 14.6671875000001  C 25.8927951388889 14.8453125000001  26 15.0562500000001  26 15.3000000000001  L 26 17.0999999999999  C 26 17.34375  25.8927951388889 17.5546875  25.6783854166667 17.7328124999999  C 25.4639756944445 17.9109374999999  25.2100694444445 18  24.9166666666667 18  L 1.08333333333334 18  C 0.78993055555555 18  0.53602430555555 17.9109374999999  0.321614583333336 17.7328124999999  C 0.107204861111114 17.5546875  0 17.34375  0 17.0999999999999  L 0 15.3000000000001  C 0 15.0562500000001  0.107204861111114 14.8453125000001  0.321614583333336 14.6671875000001  C 0.53602430555555 14.4890624999999  0.78993055555555 14.4000000000001  1.08333333333334 14.4000000000001  L 24.9166666666667 14.4000000000001  C 25.2100694444445 14.4000000000001  25.4639756944445 14.4890624999999  25.6783854166667 14.6671875000001  Z M 25.6783854166667 7.46718749999991  C 25.8927951388889 7.64531249999993  26 7.85624999999993  26 8.09999999999991  L 26 9.90000000000009  C 26 10.1437500000001  25.8927951388889 10.3546875000001  25.6783854166667 10.5328125000001  C 25.4639756944445 10.7109375  25.2100694444445 10.8000000000001  24.9166666666667 10.8000000000001  L 8.66666666360754 10.8000000000001  L 1.08333333333334 10.8000000000001  C 0.78993055555555 10.8000000000001  0.53602430555555 10.7109375  0.321614583333336 10.5328125000001  C 0.107204861111114 10.3546875000001  0 10.1437500000001  0 9.90000000000009  L 0 8.09999999999991  C 0 7.85624999999993  0.107204861111114 7.64531249999993  0.321614583333336 7.46718749999991  C 0.53602430555555 7.2890625  0.78993055555555 7.19999999999993  1.08333333333334 7.19999999999993  L 12.0808080487612 7.19999999999993  L 24.9166666666667 7.19999999999993  C 25.2100694444445 7.19999999999993  25.4639756944445 7.2890625  25.6783854166667 7.46718749999991  Z M 25.6783854166667 0.267187500000091  C 25.8927951388889 0.4453125  26 0.65625  26 0.900000000000091  L 26 2.69999999999993  C 26 2.94374999999991  25.8927951388889 3.15468749999991  25.6783854166667 3.33281249999993  C 25.4639756944445 3.51093750000007  25.2100694444445 3.59999999999991  24.9166666666667 3.59999999999991  L 15.7733333320255 3.59999999999991  L 1.08333333333334 3.59999999999991  C 0.78993055555555 3.59999999999991  0.53602430555555 3.51093750000007  0.321614583333336 3.33281249999993  C 0.107204861111114 3.15468749999991  0 2.94374999999991  0 2.69999999999993  L 0 0.900000000000091  C 0 0.65625  0.107204861111114 0.4453125  0.321614583333336 0.267187500000091  C 0.53602430555555 0.0890625000000682  0.78993055555555 0  1.08333333333334 0  L 24.9166666666667 0  C 25.2100694444445 0  25.4639756944445 0.0890625000000682  25.6783854166667 0.267187500000091  Z " fill-rule="nonzero" fill="#ffffff" stroke="none" fill-opacity="0.8" transform="matrix(1 0 0 1 45 930 )" />
  </g>
</svg>