<?xml version="1.0" encoding="utf-8"?>
<svg version="1.1" xmlns:xlink="http://www.w3.org/1999/xlink" width="20px" height="22px" xmlns="http://www.w3.org/2000/svg">
  <defs>
    <filter x="444px" y="126px" width="20px" height="22px" filterUnits="userSpaceOnUse" id="filter9">
      <feOffset dx="1" dy="1" in="SourceAlpha" result="shadowOffsetInner" />
      <feGaussianBlur stdDeviation="1.5" in="shadowOffsetInner" result="shadowGaussian" />
      <feComposite in2="shadowGaussian" operator="atop" in="SourceAlpha" result="shadowComposite" />
      <feColorMatrix type="matrix" values="0 0 0 0 0  0 0 0 0 0  0 0 0 0 0  0 0 0 0.313725490196078 0  " in="shadowComposite" />
    </filter>
    <g id="widget10">
      <path d="M 8.5859375 9.8125  C 9.32351762820514 8.96955128205127  9.69230769230768 7.95512820512818  9.69230769230768 6.76923076923077  C 9.69230769230768 5.58333333333331  9.32351762820514 4.56891025641022  8.5859375 3.72596153846149  C 7.84835737179486 2.88301282051287  6.96073717948718 2.46153846153851  5.92307692307693 2.46153846153851  C 4.88541666666669 2.46153846153851  3.99779647435898 2.88301282051287  3.26021634615384 3.72596153846149  C 2.5226362179487 4.56891025641022  2.15384615384616 5.58333333333331  2.15384615384616 6.76923076923077  C 2.15384615384616 7.95512820512818  2.5226362179487 8.96955128205127  3.26021634615384 9.8125  C 3.99779647435898 10.6554487179487  4.88541666666669 11.0769230769231  5.92307692307693 11.0769230769231  C 6.96073717948718 11.0769230769231  7.84835737179486 10.6554487179487  8.5859375 9.8125  Z M 13.6887019230769 13.9038461538462  C 13.8962339743589 14.1410256410256  14 14.4294871794871  14 14.7692307692308  C 14 15.1025641025641  13.8934294871795 15.3910256410256  13.6802884615385 15.6346153846154  C 13.4671474358974 15.8782051282051  13.2147435897436 16  12.9230769230769 16  C 12.6201923076923 16  12.3677884615385 15.8782051282051  12.1658653846154 15.6346153846154  L 9.28004807692307 12.3461538461538  C 8.27604166666669 13.1410256410256  7.1570512820513 13.5384615384615  5.92307692307693 13.5384615384615  C 5.12099358974359 13.5384615384615  4.35396634615384 13.3605769230769  3.62199519230768 13.0048076923077  C 2.89002403846155 12.6490384615385  2.25901442307693 12.1682692307692  1.72896634615384 11.5625  C 1.19891826923077 10.9567307692308  0.778245192307679 10.2355769230769  0.466947115384613 9.39903846153851  C 0.155649038461547 8.5625  0 7.68589743589746  0 6.76923076923077  C 0 5.85256410256414  0.155649038461547 4.97596153846149  0.466947115384613 4.13942307692309  C 0.778245192307679 3.30288461538458  1.19891826923077 2.58173076923077  1.72896634615384 1.97596153846149  C 2.25901442307693 1.37019230769232  2.89002403846155 0.889423076923094  3.62199519230768 0.533653846153811  C 4.35396634615384 0.177884615384585  5.12099358974359 0  5.92307692307693 0  C 6.72516025641025 0  7.4921875 0.177884615384585  8.22415865384616 0.533653846153811  C 8.95612980769232 0.889423076923094  9.58713942307693 1.37019230769232  10.1171875 1.97596153846149  C 10.6472355769231 2.58173076923077  11.0679086538461 3.30288461538458  11.3792067307692 4.13942307692309  C 11.6905048076923 4.97596153846149  11.8461538461539 5.85256410256414  11.8461538461539 6.76923076923077  C 11.8461538461539 8.17948717948713  11.4983974358974 9.45833333333331  10.8028846153846 10.6057692307692  L 13.6887019230769 13.9038461538462  Z " fill-rule="nonzero" fill="#f6872c" stroke="none" fill-opacity="0.807843137254902" transform="matrix(1 0 0 1 446 128 )" />
    </g>
  </defs>
  <g transform="matrix(1 0 0 1 -444 -126 )">
    <use xlink:href="#widget10" filter="url(#filter9)" />
    <use xlink:href="#widget10" />
  </g>
</svg>